<?xml version="1.0" encoding="UTF-8" standalone="no"?><!DOCTYPE svg PUBLIC "-//W3C//DTD SVG 1.1//EN" "http://www.w3.org/Graphics/SVG/1.1/DTD/svg11.dtd"><svg width="100%" height="100%" viewBox="0 0 48 48" version="1.1" xmlns="http://www.w3.org/2000/svg" xmlns:xlink="http://www.w3.org/1999/xlink" xml:space="preserve" style="fill-rule:evenodd;clip-rule:evenodd;stroke-linejoin:round;stroke-miterlimit:1.41421;"><path id="path5585" d="M23.485,6.726c-0.235,0.045 -0.458,0.138 -0.655,0.273l-17.743,11.028c-0.578,0.356 -0.899,1.018 -0.819,1.693l1.31,10.809c0.073,0.593 0.444,1.108 0.983,1.365l19.435,9.227c0.633,0.3 1.388,0.192 1.911,-0.273l14.631,-13.158c0.32,-0.3 0.515,-0.709 0.546,-1.146l0.656,-10.973c0.054,-0.756 -0.389,-1.465 -1.092,-1.747l-18.289,-6.988c-0.277,-0.111 -0.578,-0.149 -0.874,-0.11l0,0Zm0.382,2.73l7.152,2.73l-6.606,4.64l-7.588,-3.002l7.042,-4.368l0,0Zm9.117,3.494l7.316,2.784l-6.06,4.968l-7.916,-3.111l6.66,-4.641Zm-17.961,2.02l7.698,3.057l-6.661,4.641l-8.08,-3.33l7.043,-4.368Zm25.987,2.402l-0.546,8.626l-12.83,11.574l0,-9.172l13.376,-11.028l0,0Zm-16.379,1.42l8.08,3.166l-6.059,5.023l-8.681,-3.549l6.66,-4.64l0,0Zm-17.579,2.074l18.835,7.698l0,9.608l-17.797,-8.407l-1.038,-8.899l0,0Z" style="fill-rule:nonzero;"/></svg>