<?xml version="1.0" encoding="UTF-8" standalone="no"?><!DOCTYPE svg PUBLIC "-//W3C//DTD SVG 1.1//EN" "http://www.w3.org/Graphics/SVG/1.1/DTD/svg11.dtd"><svg width="100%" height="100%" viewBox="0 0 48 48" version="1.1" xmlns="http://www.w3.org/2000/svg" xmlns:xlink="http://www.w3.org/1999/xlink" xml:space="preserve" style="fill-rule:evenodd;clip-rule:evenodd;stroke-linejoin:round;stroke-miterlimit:1.41421;"><path d="M21.003,6.892c0.556,0.01 1.11,0.047 1.662,0.119c1.278,0.169 2.532,0.516 3.715,1.029c1.323,0.575 2.554,1.357 3.636,2.311c1.03,0.907 1.927,1.965 2.649,3.133c0.781,1.263 1.355,2.651 1.696,4.096c0.437,1.848 0.491,3.782 0.16,5.651c-0.231,1.299 -0.649,2.558 -1.231,3.741c0.449,0.448 0.896,0.897 1.343,1.346c1.301,1.315 2.595,2.637 3.872,3.976c0.32,0.335 0.638,0.671 0.956,1.009c0.255,0.27 0.515,0.527 0.737,0.824c0.45,0.6 0.737,1.321 0.831,2.065c0.067,0.537 0.035,1.086 -0.098,1.611c-0.122,0.485 -0.33,0.949 -0.609,1.365c-0.251,0.375 -0.56,0.711 -0.913,0.992c-0.289,0.23 -0.607,0.424 -0.944,0.573c-0.312,0.138 -0.639,0.24 -0.974,0.302c-0.852,0.159 -1.744,0.057 -2.539,-0.287c-0.307,-0.134 -0.6,-0.302 -0.869,-0.503c-0.158,-0.119 -0.305,-0.251 -0.451,-0.385l-6.615,-6.615c-0.126,0.062 -0.252,0.122 -0.379,0.181c-0.136,0.061 -0.272,0.121 -0.408,0.179c-0.41,0.17 -0.825,0.324 -1.249,0.455c-0.931,0.29 -1.894,0.482 -2.865,0.571c-1.502,0.138 -3.025,0.031 -4.492,-0.315c-1.347,-0.319 -2.645,-0.839 -3.837,-1.541c-1.27,-0.748 -2.417,-1.699 -3.391,-2.804c-0.916,-1.04 -1.674,-2.217 -2.242,-3.482c-0.665,-1.481 -1.065,-3.079 -1.181,-4.699c-0.124,-1.723 0.075,-3.467 0.584,-5.117c0.542,-1.751 1.433,-3.389 2.609,-4.794c1.237,-1.479 2.78,-2.698 4.509,-3.553c1.259,-0.622 2.614,-1.05 4.002,-1.267c0.66,-0.103 1.325,-0.155 1.992,-0.167c0.167,-0.001 0.167,-0.001 0.334,0Zm-0.3,2.793c-0.535,0.009 -1.067,0.05 -1.595,0.133c-1.199,0.187 -2.365,0.572 -3.439,1.136c-1.368,0.718 -2.579,1.726 -3.539,2.935c-0.908,1.142 -1.584,2.462 -1.981,3.866c-0.388,1.372 -0.508,2.817 -0.355,4.234c0.144,1.338 0.531,2.648 1.142,3.848c0.529,1.037 1.223,1.985 2.045,2.809c0.805,0.806 1.734,1.488 2.746,2.012c1.116,0.577 2.33,0.961 3.574,1.134c1.427,0.197 2.891,0.116 4.287,-0.239c0.801,-0.203 1.579,-0.497 2.315,-0.874c0.358,-0.183 0.703,-0.387 1.04,-0.606l0.082,-0.047c0.077,-0.031 0.096,-0.043 0.178,-0.06c0.186,-0.039 0.382,-0.006 0.545,0.091c0.073,0.043 0.086,0.06 0.149,0.116l7.667,7.669c0.073,0.067 0.146,0.134 0.227,0.192c0.16,0.113 0.344,0.194 0.535,0.239c0.195,0.047 0.402,0.057 0.6,0.026c0.189,-0.03 0.372,-0.091 0.539,-0.185c0.143,-0.081 0.273,-0.185 0.384,-0.306c0.168,-0.183 0.293,-0.403 0.362,-0.641c0.091,-0.32 0.077,-0.667 -0.039,-0.978c-0.049,-0.133 -0.116,-0.258 -0.198,-0.374c-0.029,-0.04 -0.062,-0.077 -0.093,-0.115c-0.377,-0.403 -0.755,-0.805 -1.133,-1.207c-0.927,-0.978 -1.857,-1.953 -2.803,-2.913c-1.23,-1.249 -2.483,-2.475 -3.735,-3.703l-0.064,-0.071c-0.048,-0.069 -0.064,-0.084 -0.098,-0.162c-0.078,-0.174 -0.087,-0.376 -0.026,-0.557c0.028,-0.08 0.042,-0.097 0.084,-0.17c0.066,-0.103 0.132,-0.206 0.197,-0.309c0.187,-0.308 0.361,-0.622 0.519,-0.945c0.362,-0.743 0.64,-1.527 0.828,-2.332c0.329,-1.405 0.381,-2.872 0.154,-4.296c-0.21,-1.324 -0.661,-2.607 -1.328,-3.769c-0.583,-1.018 -1.329,-1.939 -2.199,-2.725c-0.856,-0.774 -1.833,-1.412 -2.885,-1.885c-0.9,-0.404 -1.854,-0.686 -2.828,-0.838c-0.44,-0.069 -0.883,-0.109 -1.328,-0.127c-0.178,-0.005 -0.355,-0.008 -0.533,-0.006Zm0.239,2.239c0.391,0.007 0.78,0.035 1.167,0.091c0.85,0.122 1.682,0.369 2.462,0.73c1.045,0.485 1.99,1.176 2.773,2.021c0.628,0.677 1.149,1.452 1.537,2.29c0.827,1.783 1.036,3.827 0.593,5.741c-0.186,0.807 -0.486,1.587 -0.889,2.31c-0.492,0.882 -1.135,1.677 -1.893,2.344c-0.772,0.679 -1.661,1.223 -2.619,1.597c-1.029,0.403 -2.132,0.609 -3.237,0.609c-1.105,0 -2.208,-0.206 -3.237,-0.609c-0.958,-0.374 -1.847,-0.918 -2.619,-1.597c-0.758,-0.667 -1.401,-1.462 -1.893,-2.344c-0.403,-0.723 -0.703,-1.503 -0.889,-2.31c-0.443,-1.914 -0.234,-3.958 0.593,-5.741c0.388,-0.838 0.909,-1.613 1.537,-2.29c0.783,-0.845 1.728,-1.536 2.773,-2.021c0.78,-0.361 1.612,-0.608 2.462,-0.73c0.387,-0.056 0.776,-0.084 1.167,-0.091c0.106,0 0.106,0 0.212,0Zm-0.194,1.523c-0.324,0.006 -0.647,0.029 -0.967,0.075c-0.704,0.102 -1.393,0.306 -2.039,0.605c-0.866,0.401 -1.648,0.974 -2.297,1.674c-0.52,0.561 -0.951,1.202 -1.273,1.896c-0.647,1.396 -0.838,2.987 -0.545,4.498c0.141,0.73 0.393,1.438 0.747,2.092c0.398,0.734 0.923,1.398 1.542,1.958c0.633,0.572 1.364,1.032 2.155,1.352c0.849,0.344 1.761,0.526 2.677,0.537c0.915,0.011 1.831,-0.149 2.687,-0.472c0.795,-0.3 1.535,-0.739 2.18,-1.293c0.658,-0.565 1.217,-1.245 1.639,-2.003c0.334,-0.598 0.582,-1.244 0.736,-1.912c0.353,-1.527 0.207,-3.155 -0.417,-4.594c-0.291,-0.67 -0.683,-1.294 -1.158,-1.848c-0.624,-0.727 -1.389,-1.332 -2.243,-1.767c-0.635,-0.324 -1.317,-0.553 -2.019,-0.68c-0.319,-0.058 -0.641,-0.092 -0.964,-0.11c-0.147,-0.006 -0.294,-0.009 -0.441,-0.008Z"/></svg>