<?xml version="1.0" encoding="UTF-8" standalone="no"?><!DOCTYPE svg PUBLIC "-//W3C//DTD SVG 1.1//EN" "http://www.w3.org/Graphics/SVG/1.1/DTD/svg11.dtd"><svg width="100%" height="100%" viewBox="0 0 48 48" version="1.1" xmlns="http://www.w3.org/2000/svg" xmlns:xlink="http://www.w3.org/1999/xlink" xml:space="preserve" style="fill-rule:evenodd;clip-rule:evenodd;stroke-linejoin:round;stroke-miterlimit:1.41421;"><path d="M41.141,27.567c1.024,1.019 1.028,2.678 0.009,3.702l-4.295,4.314c-1.019,1.024 -2.677,1.028 -3.701,0.009l-1.828,-1.819l-2.813,2.826c-1.019,1.024 -2.678,1.028 -3.702,0.009l-2.157,-2.147l-2.813,2.826c-1.019,1.024 -2.678,1.028 -3.702,0.009l-9.551,-9.506l-0.499,-8.485l4.95,0.268l-0.291,-4.949l4.95,0.268l-0.291,-4.949l8.487,0.459l17.247,17.165Z" style="fill:#fff;"/><path d="M15.501,8.195l8.487,0.459l0.141,0.013c0.124,0.022 0.156,0.024 0.277,0.061c0.18,0.055 0.352,0.14 0.506,0.25c0.102,0.073 0.123,0.098 0.216,0.183l17.255,17.173c0.331,0.338 0.612,0.719 0.822,1.143c0.267,0.536 0.421,1.127 0.451,1.726c0.033,0.666 -0.087,1.338 -0.352,1.95c-0.143,0.332 -0.327,0.646 -0.548,0.933c-0.091,0.117 -0.188,0.228 -0.288,0.336c-1.441,1.486 -2.92,2.936 -4.38,4.403c-0.338,0.332 -0.719,0.612 -1.144,0.823c-0.505,0.251 -1.058,0.402 -1.62,0.444c-0.736,0.054 -1.483,-0.08 -2.153,-0.389c-0.464,-0.213 -0.879,-0.508 -1.244,-0.863l-0.596,-0.593l-1.586,1.594c-0.076,0.074 -0.075,0.074 -0.153,0.146c-0.111,0.098 -0.223,0.193 -0.342,0.281c-0.29,0.214 -0.607,0.391 -0.94,0.528c-0.553,0.225 -1.15,0.335 -1.747,0.322c-0.633,-0.013 -1.263,-0.166 -1.832,-0.445c-0.425,-0.209 -0.807,-0.488 -1.147,-0.817l-0.925,-0.921l-1.585,1.594c-0.076,0.074 -0.076,0.074 -0.154,0.146c-0.111,0.098 -0.223,0.193 -0.342,0.28c-0.29,0.215 -0.607,0.392 -0.94,0.529c-0.617,0.251 -1.291,0.359 -1.955,0.313c-0.563,-0.039 -1.117,-0.188 -1.624,-0.437c-0.425,-0.209 -0.807,-0.487 -1.147,-0.817l-9.559,-9.514c-0.097,-0.105 -0.187,-0.21 -0.262,-0.333c-0.098,-0.162 -0.169,-0.339 -0.211,-0.524c-0.027,-0.123 -0.027,-0.155 -0.039,-0.28l-0.5,-8.484c0,-0.052 -0.003,-0.104 -0.002,-0.155c0.005,-0.155 0.03,-0.31 0.075,-0.458c0.168,-0.55 0.607,-0.992 1.157,-1.162c0.148,-0.046 0.302,-0.072 0.457,-0.077c0.052,-0.002 0.103,0.001 0.155,0.001l2.994,0.162l-0.176,-2.993l-0.003,-0.155c0.004,-0.051 0.006,-0.103 0.012,-0.154c0.018,-0.154 0.057,-0.306 0.115,-0.45c0.196,-0.483 0.607,-0.861 1.105,-1.015c0.148,-0.046 0.302,-0.072 0.457,-0.078c0.052,-0.001 0.104,0.001 0.155,0.002l2.994,0.162l-0.176,-2.993l-0.002,-0.155c0.003,-0.052 0.005,-0.103 0.011,-0.155c0.018,-0.154 0.057,-0.305 0.116,-0.449c0.195,-0.483 0.606,-0.861 1.104,-1.016c0.099,-0.03 0.2,-0.052 0.303,-0.065c0.051,-0.006 0.103,-0.008 0.154,-0.012c0.052,0.001 0.104,0.001 0.155,0.002Zm-5.171,12.09l-3.444,-0.186c0.145,2.454 0.289,4.907 0.434,7.36c3.127,3.113 6.216,6.265 9.383,9.338c0.035,0.033 0.071,0.064 0.108,0.095c0.145,0.115 0.303,0.211 0.475,0.28c0.477,0.192 1.025,0.177 1.491,-0.04c0.184,-0.086 0.349,-0.203 0.498,-0.341c0.775,-0.759 1.545,-1.524 2.31,-2.294c-3.644,-3.597 -7.238,-7.245 -10.867,-10.858c-0.047,-0.051 -0.06,-0.062 -0.099,-0.121c-0.057,-0.087 -0.095,-0.186 -0.112,-0.289c-0.004,-0.025 -0.006,-0.051 -0.009,-0.077l-0.168,-2.867Zm4.659,-4.681l-3.443,-0.186c0.144,2.453 0.288,4.907 0.433,7.36c4.465,4.444 8.875,8.944 13.396,13.331c0.035,0.033 0.071,0.064 0.108,0.095c0.145,0.115 0.303,0.211 0.475,0.28c0.477,0.192 1.025,0.177 1.49,-0.04c0.185,-0.086 0.35,-0.202 0.499,-0.341c0.775,-0.759 1.545,-1.524 2.31,-2.293c-4.998,-4.913 -9.913,-9.909 -14.88,-14.852c-0.017,-0.019 -0.036,-0.038 -0.052,-0.058c-0.066,-0.081 -0.115,-0.175 -0.142,-0.276c-0.019,-0.067 -0.018,-0.085 -0.026,-0.154l-0.168,-2.866Zm1.649,2.493c5.693,5.666 11.317,11.402 17.079,16.997c0.036,0.032 0.071,0.064 0.108,0.094c0.146,0.116 0.303,0.211 0.476,0.281c0.476,0.191 1.024,0.177 1.49,-0.04c0.184,-0.086 0.349,-0.203 0.498,-0.341c1.473,-1.443 2.927,-2.904 4.363,-4.384c0.137,-0.149 0.253,-0.315 0.338,-0.499c0.228,-0.495 0.227,-1.08 -0.004,-1.574c-0.093,-0.201 -0.223,-0.378 -0.378,-0.536l-17.041,-16.96l-7.362,-0.399c0.144,2.454 0.289,4.907 0.433,7.361Zm5.117,-4.115c0.631,0.628 0.634,1.652 0.005,2.283c-0.629,0.632 -1.652,0.634 -2.283,0.006c-0.632,-0.629 -0.635,-1.652 -0.006,-2.284c0.629,-0.632 1.652,-0.634 2.284,-0.005Z"/></svg>