<?xml version="1.0" encoding="UTF-8" standalone="no"?><!DOCTYPE svg PUBLIC "-//W3C//DTD SVG 1.1//EN" "http://www.w3.org/Graphics/SVG/1.1/DTD/svg11.dtd"><svg width="100%" height="100%" viewBox="0 0 50 50" version="1.1" xmlns="http://www.w3.org/2000/svg" xmlns:xlink="http://www.w3.org/1999/xlink" xml:space="preserve" style="fill-rule:evenodd;clip-rule:evenodd;stroke-linejoin:round;stroke-miterlimit:1.41421;"><path id="path17472" d="M25,0c-13.789,0 -25,11.211 -25,25c0,13.789 11.211,25 25,25c13.789,0 25,-11.211 25,-25c0,-13.789 -11.211,-25 -25,-25Zm0,3.048c1.06,0 2.102,0.08 3.122,0.225l-3.829,14.297l-0.454,1.695l1.475,5.499l4.024,-4.025l0.475,-1.77l3.796,-14.174c7.851,3.342 13.343,11.121 13.343,20.205c0,12.142 -9.81,21.952 -21.952,21.952c-12.142,0 -21.952,-9.81 -21.952,-21.952c0,-12.142 9.81,-21.952 21.952,-21.952Zm-5.035,13.845c-5.801,2.209 -10.096,6.113 -14.226,11.489c9.332,2.44 16.713,5.724 24.915,13.021c2.578,-4.753 2.777,-9.16 14.373,-16.401c-4.53,-1.912 -8.922,-3.958 -13.764,-5.565l-0.559,2.09l-6.18,6.182l-0.006,-0.022c-0.821,0.924 -1.712,1.839 -2.672,3.17l-1.236,-0.892c1.336,-1.852 2.501,-2.943 3.423,-4.084l-0.676,-2.522c-2.164,1.471 -3.538,3.065 -5.742,5.642l-1.157,-0.99c2.341,-2.737 3.885,-4.539 6.482,-6.208l-0.681,-2.539l0.528,-1.968c-0.92,-0.155 -1.855,-0.294 -2.822,-0.403l0,0Zm-0.008,2.745l0.778,1.311c-2.928,1.74 -5.225,3.62 -7.627,6.456l-1.163,-0.986c2.499,-2.95 4.968,-4.973 8.012,-6.781l0,0Z"/></svg>