<?xml version="1.0" encoding="UTF-8" standalone="no"?><!DOCTYPE svg PUBLIC "-//W3C//DTD SVG 1.1//EN" "http://www.w3.org/Graphics/SVG/1.1/DTD/svg11.dtd"><svg width="100%" height="100%" viewBox="0 0 50 50" version="1.1" xmlns="http://www.w3.org/2000/svg" xmlns:xlink="http://www.w3.org/1999/xlink" xml:space="preserve" style="fill-rule:evenodd;clip-rule:evenodd;stroke-linejoin:round;stroke-miterlimit:1.41421;"><path d="M113,51l-50,0l0,-50l50,0l0,50Zm-49,-49l0,48l48,0l0,-48l-48,0Z" style="fill:#f00;"/><path d="M-59.177,-59.771l26.001,-0.251l0.176,18.26l-26.001,0.251l-0.176,-18.26Z"/><path d="M-31.486,-40.277l-29,0.281l-0.206,-21.26l29.001,-0.281l0.205,21.26Zm-27.691,-19.494l0.176,18.26l26.001,-0.251l-0.176,-18.26l-26.001,0.251Z" style="fill:#fffafa;"/><path d="M-66.156,-55.637l28.965,-0.28l0.191,19.751l-28.965,0.279l-0.191,-19.75Z"/><path d="M-35.486,-34.681l-31.964,0.309l-0.22,-22.751l31.965,-0.309l0.219,22.751Zm-30.67,-20.956l0.191,19.75l28.965,-0.279l-0.191,-19.751l-28.965,0.28Z" style="fill:#fffafa;"/><path d="M25.159,0.401l0.159,0.001l0.158,0.003l0.159,0.003l0.158,0.005l0.157,0.005l0.158,0.007l0.157,0.007l0.157,0.009l0.157,0.009l0.156,0.01l0.157,0.012l0.156,0.012l0.155,0.014l0.156,0.014l0.155,0.015l0.155,0.016l0.154,0.018l0.154,0.018l0.154,0.019l0.154,0.02l0.153,0.021l0.153,0.022l0.153,0.023l0.153,0.023l0.152,0.025l0.152,0.026l0.151,0.027l0.151,0.027l0.151,0.029l0.151,0.029l0.15,0.03l0.15,0.031l0.15,0.032l0.149,0.033l0.149,0.034l0.148,0.035l0.149,0.036l0.147,0.037l0.148,0.037l0.147,0.038l0.147,0.04l0.146,0.04l0.146,0.041l0.146,0.042l0.145,0.043l0.145,0.043l0.145,0.045l0.144,0.045l0.144,0.046l0.143,0.047l0.143,0.048l0.143,0.049l0.142,0.05l0.142,0.05l0.142,0.052l0.141,0.052l0.14,0.053l0.141,0.054l0.139,0.054l0.14,0.056l0.139,0.056l0.138,0.057l0.139,0.058l0.137,0.059l0.138,0.06l0.136,0.06l0.137,0.061l0.136,0.063l0.135,0.062l0.136,0.064l0.134,0.064l0.134,0.066l0.134,0.066l0.133,0.066l0.133,0.068l0.133,0.068l0.131,0.069l0.132,0.07l0.131,0.071l0.13,0.071l0.13,0.073l0.13,0.072l0.129,0.074l0.128,0.075l0.128,0.075l0.128,0.076l0.127,0.077l0.127,0.077l0.126,0.078l0.125,0.079l0.125,0.08l0.125,0.08l0.124,0.081l0.123,0.082l0.123,0.083l0.123,0.083l0.121,0.084l0.122,0.085l0.121,0.085l0.12,0.086l0.12,0.087l0.119,0.088l0.119,0.088l0.118,0.089l0.117,0.089l0.117,0.091l0.117,0.091l0.116,0.091l0.115,0.093l0.115,0.093l0.114,0.093l0.114,0.095l0.113,0.095l0.112,0.095l0.112,0.097l0.111,0.097l0.111,0.098l0.11,0.098l0.11,0.099l0.109,0.099l0.108,0.101l0.108,0.101l0.107,0.101l0.107,0.102l0.105,0.103l0.106,0.104l0.104,0.104l0.104,0.104l0.104,0.106l0.103,0.105l0.102,0.107l0.101,0.107l0.101,0.108l0.101,0.108l0.099,0.109l0.099,0.11l0.098,0.11l0.098,0.111l0.097,0.111l0.097,0.112l0.095,0.112l0.095,0.113l0.095,0.114l0.093,0.114l0.093,0.115l0.093,0.115l0.091,0.116l0.091,0.117l0.091,0.117l0.089,0.117l0.089,0.118l0.088,0.119l0.088,0.119l0.087,0.12l0.086,0.12l0.085,0.121l0.085,0.122l0.084,0.121l0.083,0.123l0.083,0.123l0.082,0.123l0.081,0.124l0.08,0.125l0.08,0.125l0.079,0.125l0.078,0.126l0.077,0.127l0.077,0.127l0.076,0.128l0.075,0.128l0.075,0.128l0.074,0.129l0.072,0.13l0.073,0.13l0.071,0.13l0.071,0.131l0.07,0.132l0.069,0.131l0.068,0.133l0.068,0.133l0.066,0.133l0.066,0.134l0.066,0.134l0.064,0.134l0.064,0.136l0.062,0.135l0.063,0.136l0.061,0.137l0.06,0.136l0.06,0.138l0.059,0.137l0.058,0.139l0.057,0.138l0.056,0.139l0.056,0.14l0.054,0.139l0.054,0.141l0.053,0.14l0.052,0.141l0.052,0.142l0.05,0.142l0.05,0.142l0.049,0.143l0.048,0.143l0.047,0.143l0.046,0.144l0.045,0.144l0.045,0.145l0.043,0.145l0.043,0.145l0.042,0.146l0.041,0.146l0.04,0.146l0.04,0.147l0.038,0.147l0.037,0.148l0.037,0.147l0.036,0.149l0.035,0.148l0.034,0.149l0.033,0.149l0.032,0.15l0.031,0.15l0.03,0.15l0.029,0.151l0.029,0.151l0.027,0.151l0.027,0.151l0.026,0.152l0.025,0.152l0.023,0.153l0.023,0.153l0.022,0.153l0.021,0.153l0.02,0.154l0.019,0.154l0.018,0.154l0.018,0.154l0.016,0.155l0.015,0.155l0.014,0.156l0.014,0.155l0.012,0.156l0.012,0.157l0.01,0.156l0.009,0.157l0.009,0.157l0.007,0.157l0.007,0.158l0.005,0.157l0.005,0.158l0.003,0.159l0.003,0.158l0.001,0.159l0.001,0.159l-0.001,0.159l-0.001,0.159l-0.003,0.158l-0.003,0.159l-0.005,0.158l-0.005,0.157l-0.007,0.158l-0.007,0.157l-0.009,0.157l-0.009,0.157l-0.01,0.156l-0.012,0.157l-0.012,0.156l-0.014,0.155l-0.014,0.156l-0.015,0.155l-0.016,0.155l-0.018,0.154l-0.018,0.154l-0.019,0.154l-0.02,0.154l-0.021,0.153l-0.022,0.153l-0.023,0.153l-0.023,0.153l-0.025,0.152l-0.026,0.152l-0.027,0.151l-0.027,0.151l-0.029,0.151l-0.029,0.151l-0.03,0.15l-0.031,0.15l-0.032,0.15l-0.033,0.149l-0.034,0.149l-0.035,0.148l-0.036,0.149l-0.037,0.147l-0.037,0.148l-0.038,0.147l-0.04,0.147l-0.04,0.146l-0.041,0.146l-0.042,0.146l-0.043,0.145l-0.043,0.145l-0.045,0.145l-0.045,0.144l-0.046,0.144l-0.047,0.143l-0.048,0.143l-0.049,0.143l-0.05,0.142l-0.05,0.142l-0.052,0.142l-0.052,0.141l-0.053,0.14l-0.054,0.141l-0.054,0.139l-0.056,0.14l-0.056,0.139l-0.057,0.138l-0.058,0.139l-0.059,0.137l-0.06,0.138l-0.06,0.136l-0.061,0.137l-0.063,0.136l-0.062,0.135l-0.064,0.136l-0.064,0.134l-0.066,0.134l-0.066,0.134l-0.066,0.133l-0.068,0.133l-0.068,0.133l-0.069,0.131l-0.07,0.132l-0.071,0.131l-0.071,0.13l-0.073,0.13l-0.072,0.13l-0.074,0.129l-0.075,0.128l-0.075,0.128l-0.076,0.128l-0.077,0.127l-0.077,0.127l-0.078,0.126l-0.079,0.125l-0.08,0.125l-0.08,0.125l-0.081,0.124l-0.082,0.123l-0.083,0.123l-0.083,0.123l-0.084,0.121l-0.085,0.122l-0.085,0.121l-0.086,0.12l-0.087,0.12l-0.088,0.119l-0.088,0.119l-0.089,0.118l-0.089,0.117l-0.091,0.117l-0.091,0.117l-0.091,0.116l-0.093,0.115l-0.093,0.115l-0.093,0.114l-0.095,0.114l-0.095,0.113l-0.095,0.112l-0.097,0.112l-0.097,0.111l-0.098,0.111l-0.098,0.11l-0.099,0.11l-0.099,0.109l-0.101,0.108l-0.101,0.108l-0.101,0.107l-0.102,0.107l-0.103,0.105l-0.104,0.106l-0.104,0.104l-0.104,0.104l-0.106,0.104l-0.105,0.103l-0.107,0.102l-0.107,0.101l-0.108,0.101l-0.108,0.101l-0.109,0.099l-0.11,0.099l-0.11,0.098l-0.111,0.098l-0.111,0.097l-0.112,0.097l-0.112,0.095l-0.113,0.095l-0.114,0.095l-0.114,0.093l-0.115,0.093l-0.115,0.093l-0.116,0.091l-0.117,0.091l-0.117,0.091l-0.117,0.089l-0.118,0.089l-0.119,0.088l-0.119,0.088l-0.12,0.087l-0.12,0.086l-0.121,0.085l-0.122,0.085l-0.121,0.084l-0.123,0.083l-0.123,0.083l-0.123,0.082l-0.124,0.081l-0.125,0.08l-0.125,0.08l-0.125,0.079l-0.126,0.078l-0.127,0.077l-0.127,0.077l-0.128,0.076l-0.128,0.075l-0.128,0.075l-0.129,0.074l-0.13,0.072l-0.13,0.073l-0.13,0.071l-0.131,0.071l-0.132,0.07l-0.131,0.069l-0.133,0.068l-0.133,0.068l-0.133,0.066l-0.134,0.066l-0.134,0.066l-0.134,0.064l-0.136,0.064l-0.135,0.062l-0.136,0.063l-0.137,0.061l-0.136,0.06l-0.138,0.06l-0.137,0.059l-0.139,0.058l-0.138,0.057l-0.139,0.056l-0.14,0.056l-0.139,0.054l-0.141,0.054l-0.14,0.053l-0.141,0.052l-0.142,0.052l-0.142,0.05l-0.142,0.05l-0.143,0.049l-0.143,0.048l-0.143,0.047l-0.144,0.046l-0.144,0.045l-0.145,0.045l-0.145,0.043l-0.145,0.043l-0.146,0.042l-0.146,0.041l-0.146,0.04l-0.147,0.04l-0.147,0.038l-0.148,0.037l-0.147,0.037l-0.149,0.036l-0.148,0.035l-0.149,0.034l-0.149,0.033l-0.15,0.032l-0.15,0.031l-0.15,0.03l-0.151,0.029l-0.151,0.029l-0.151,0.027l-0.151,0.027l-0.152,0.026l-0.152,0.025l-0.153,0.023l-0.153,0.023l-0.153,0.022l-0.153,0.021l-0.154,0.02l-0.154,0.019l-0.154,0.018l-0.154,0.018l-0.155,0.016l-0.155,0.015l-0.156,0.014l-0.155,0.014l-0.156,0.012l-0.157,0.012l-0.156,0.01l-0.157,0.009l-0.157,0.009l-0.157,0.007l-0.158,0.007l-0.157,0.005l-0.158,0.005l-0.159,0.003l-0.158,0.003l-0.159,0.001l-0.159,0.001l-0.159,-0.001l-0.159,-0.001l-0.158,-0.003l-0.159,-0.003l-0.158,-0.005l-0.157,-0.005l-0.158,-0.007l-0.157,-0.007l-0.157,-0.009l-0.157,-0.009l-0.156,-0.01l-0.157,-0.012l-0.156,-0.012l-0.155,-0.014l-0.156,-0.014l-0.155,-0.015l-0.155,-0.016l-0.154,-0.018l-0.154,-0.018l-0.154,-0.019l-0.154,-0.02l-0.153,-0.021l-0.153,-0.022l-0.153,-0.023l-0.153,-0.023l-0.152,-0.025l-0.152,-0.026l-0.151,-0.027l-0.151,-0.027l-0.151,-0.029l-0.151,-0.029l-0.15,-0.03l-0.15,-0.031l-0.15,-0.032l-0.149,-0.033l-0.149,-0.034l-0.148,-0.035l-0.149,-0.036l-0.147,-0.037l-0.148,-0.037l-0.147,-0.038l-0.147,-0.04l-0.146,-0.04l-0.146,-0.041l-0.146,-0.042l-0.145,-0.043l-0.145,-0.043l-0.145,-0.045l-0.144,-0.045l-0.144,-0.046l-0.143,-0.047l-0.143,-0.048l-0.143,-0.049l-0.142,-0.05l-0.142,-0.05l-0.142,-0.052l-0.141,-0.052l-0.14,-0.053l-0.141,-0.054l-0.139,-0.054l-0.14,-0.056l-0.139,-0.056l-0.138,-0.057l-0.139,-0.058l-0.137,-0.059l-0.138,-0.06l-0.136,-0.06l-0.137,-0.061l-0.136,-0.063l-0.135,-0.062l-0.136,-0.064l-0.134,-0.064l-0.134,-0.066l-0.134,-0.066l-0.133,-0.066l-0.133,-0.068l-0.133,-0.068l-0.131,-0.069l-0.132,-0.07l-0.131,-0.071l-0.13,-0.071l-0.13,-0.073l-0.13,-0.072l-0.129,-0.074l-0.128,-0.075l-0.128,-0.075l-0.128,-0.076l-0.127,-0.077l-0.127,-0.077l-0.126,-0.078l-0.125,-0.079l-0.125,-0.08l-0.125,-0.08l-0.124,-0.081l-0.123,-0.082l-0.123,-0.083l-0.123,-0.083l-0.121,-0.084l-0.122,-0.085l-0.121,-0.085l-0.12,-0.086l-0.12,-0.087l-0.119,-0.088l-0.119,-0.088l-0.118,-0.089l-0.117,-0.089l-0.117,-0.091l-0.117,-0.091l-0.116,-0.091l-0.115,-0.093l-0.115,-0.093l-0.114,-0.093l-0.114,-0.095l-0.113,-0.095l-0.112,-0.095l-0.112,-0.097l-0.111,-0.097l-0.111,-0.098l-0.11,-0.098l-0.11,-0.099l-0.109,-0.099l-0.108,-0.101l-0.108,-0.101l-0.107,-0.101l-0.107,-0.102l-0.105,-0.103l-0.106,-0.104l-0.104,-0.104l-0.104,-0.104l-0.104,-0.106l-0.103,-0.105l-0.102,-0.107l-0.101,-0.107l-0.101,-0.108l-0.101,-0.108l-0.099,-0.109l-0.099,-0.11l-0.098,-0.11l-0.098,-0.111l-0.097,-0.111l-0.097,-0.112l-0.095,-0.112l-0.095,-0.113l-0.095,-0.114l-0.093,-0.114l-0.093,-0.115l-0.093,-0.115l-0.091,-0.116l-0.091,-0.117l-0.091,-0.117l-0.089,-0.117l-0.089,-0.118l-0.088,-0.119l-0.088,-0.119l-0.087,-0.12l-0.086,-0.12l-0.085,-0.121l-0.085,-0.122l-0.084,-0.121l-0.083,-0.123l-0.083,-0.123l-0.082,-0.123l-0.081,-0.124l-0.08,-0.125l-0.08,-0.125l-0.079,-0.125l-0.078,-0.126l-0.077,-0.127l-0.077,-0.127l-0.076,-0.128l-0.075,-0.128l-0.075,-0.128l-0.074,-0.129l-0.072,-0.13l-0.073,-0.13l-0.071,-0.13l-0.071,-0.131l-0.07,-0.132l-0.069,-0.131l-0.068,-0.133l-0.068,-0.133l-0.066,-0.133l-0.066,-0.134l-0.066,-0.134l-0.064,-0.134l-0.064,-0.136l-0.062,-0.135l-0.063,-0.136l-0.061,-0.137l-0.06,-0.136l-0.06,-0.138l-0.059,-0.137l-0.058,-0.139l-0.057,-0.138l-0.056,-0.139l-0.056,-0.14l-0.054,-0.139l-0.054,-0.141l-0.053,-0.14l-0.052,-0.141l-0.052,-0.142l-0.05,-0.142l-0.05,-0.142l-0.049,-0.143l-0.048,-0.143l-0.047,-0.143l-0.046,-0.144l-0.045,-0.144l-0.045,-0.145l-0.043,-0.145l-0.043,-0.145l-0.042,-0.146l-0.041,-0.146l-0.04,-0.146l-0.04,-0.147l-0.038,-0.147l-0.037,-0.148l-0.037,-0.147l-0.036,-0.149l-0.035,-0.148l-0.034,-0.149l-0.033,-0.149l-0.032,-0.15l-0.031,-0.15l-0.03,-0.15l-0.029,-0.151l-0.029,-0.151l-0.027,-0.151l-0.027,-0.151l-0.026,-0.152l-0.025,-0.152l-0.023,-0.153l-0.023,-0.153l-0.022,-0.153l-0.021,-0.153l-0.02,-0.154l-0.019,-0.154l-0.018,-0.154l-0.018,-0.154l-0.016,-0.155l-0.015,-0.155l-0.014,-0.156l-0.014,-0.155l-0.012,-0.156l-0.012,-0.157l-0.01,-0.156l-0.009,-0.157l-0.009,-0.157l-0.007,-0.157l-0.007,-0.158l-0.005,-0.157l-0.005,-0.158l-0.003,-0.159l-0.003,-0.158l-0.001,-0.159l-0.001,-0.159l0.001,-0.159l0.001,-0.159l0.003,-0.158l0.003,-0.159l0.005,-0.158l0.005,-0.157l0.007,-0.158l0.007,-0.157l0.009,-0.157l0.009,-0.157l0.01,-0.156l0.012,-0.157l0.012,-0.156l0.014,-0.155l0.014,-0.156l0.015,-0.155l0.016,-0.155l0.018,-0.154l0.018,-0.154l0.019,-0.154l0.02,-0.154l0.021,-0.153l0.022,-0.153l0.023,-0.153l0.023,-0.153l0.025,-0.152l0.026,-0.152l0.027,-0.151l0.027,-0.151l0.029,-0.151l0.029,-0.151l0.03,-0.15l0.031,-0.15l0.032,-0.15l0.033,-0.149l0.034,-0.149l0.035,-0.148l0.036,-0.149l0.037,-0.147l0.037,-0.148l0.038,-0.147l0.04,-0.147l0.04,-0.146l0.041,-0.146l0.042,-0.146l0.043,-0.145l0.043,-0.145l0.045,-0.145l0.045,-0.144l0.046,-0.144l0.047,-0.143l0.048,-0.143l0.049,-0.143l0.05,-0.142l0.05,-0.142l0.052,-0.142l0.052,-0.141l0.053,-0.14l0.054,-0.141l0.054,-0.139l0.056,-0.14l0.056,-0.139l0.057,-0.138l0.058,-0.139l0.059,-0.137l0.06,-0.138l0.06,-0.136l0.061,-0.137l0.063,-0.136l0.062,-0.135l0.064,-0.136l0.064,-0.134l0.066,-0.134l0.066,-0.134l0.066,-0.133l0.068,-0.133l0.068,-0.133l0.069,-0.131l0.07,-0.132l0.071,-0.131l0.071,-0.13l0.073,-0.13l0.072,-0.13l0.074,-0.129l0.075,-0.128l0.075,-0.128l0.076,-0.128l0.077,-0.127l0.077,-0.127l0.078,-0.126l0.079,-0.125l0.08,-0.125l0.08,-0.125l0.081,-0.124l0.082,-0.123l0.083,-0.123l0.083,-0.123l0.084,-0.121l0.085,-0.122l0.085,-0.121l0.086,-0.12l0.087,-0.12l0.088,-0.119l0.088,-0.119l0.089,-0.118l0.089,-0.117l0.091,-0.117l0.091,-0.117l0.091,-0.116l0.093,-0.115l0.093,-0.115l0.093,-0.114l0.095,-0.114l0.095,-0.113l0.095,-0.112l0.097,-0.112l0.097,-0.111l0.098,-0.111l0.098,-0.11l0.099,-0.11l0.099,-0.109l0.101,-0.108l0.101,-0.108l0.101,-0.107l0.102,-0.107l0.103,-0.105l0.104,-0.106l0.104,-0.104l0.104,-0.104l0.106,-0.104l0.105,-0.103l0.107,-0.102l0.107,-0.101l0.108,-0.101l0.108,-0.101l0.109,-0.099l0.11,-0.099l0.11,-0.098l0.111,-0.098l0.111,-0.097l0.112,-0.097l0.112,-0.095l0.113,-0.095l0.114,-0.095l0.114,-0.093l0.115,-0.093l0.115,-0.093l0.116,-0.091l0.117,-0.091l0.117,-0.091l0.117,-0.089l0.118,-0.089l0.119,-0.088l0.119,-0.088l0.12,-0.087l0.12,-0.086l0.121,-0.085l0.122,-0.085l0.121,-0.084l0.123,-0.083l0.123,-0.083l0.123,-0.082l0.124,-0.081l0.125,-0.08l0.125,-0.08l0.125,-0.079l0.126,-0.078l0.127,-0.077l0.127,-0.077l0.128,-0.076l0.128,-0.075l0.128,-0.075l0.129,-0.074l0.13,-0.072l0.13,-0.073l0.13,-0.071l0.131,-0.071l0.132,-0.07l0.131,-0.069l0.133,-0.068l0.133,-0.068l0.133,-0.066l0.134,-0.066l0.134,-0.066l0.134,-0.064l0.136,-0.064l0.135,-0.062l0.136,-0.063l0.137,-0.061l0.136,-0.06l0.138,-0.06l0.137,-0.059l0.139,-0.058l0.138,-0.057l0.139,-0.056l0.14,-0.056l0.139,-0.054l0.141,-0.054l0.14,-0.053l0.141,-0.052l0.142,-0.052l0.142,-0.05l0.142,-0.05l0.143,-0.049l0.143,-0.048l0.143,-0.047l0.144,-0.046l0.144,-0.045l0.145,-0.045l0.145,-0.043l0.145,-0.043l0.146,-0.042l0.146,-0.041l0.146,-0.04l0.147,-0.04l0.147,-0.038l0.148,-0.037l0.147,-0.037l0.149,-0.036l0.148,-0.035l0.149,-0.034l0.149,-0.033l0.15,-0.032l0.15,-0.031l0.15,-0.03l0.151,-0.029l0.151,-0.029l0.151,-0.027l0.151,-0.027l0.152,-0.026l0.152,-0.025l0.153,-0.023l0.153,-0.023l0.153,-0.022l0.153,-0.021l0.154,-0.02l0.154,-0.019l0.154,-0.018l0.154,-0.018l0.155,-0.016l0.155,-0.015l0.156,-0.014l0.155,-0.014l0.156,-0.012l0.157,-0.012l0.156,-0.01l0.157,-0.009l0.157,-0.009l0.157,-0.007l0.158,-0.007l0.157,-0.005l0.158,-0.005l0.159,-0.003l0.158,-0.003l0.159,-0.001l0.159,-0.001l0.159,0.001Zm-0.299,2.999l-0.14,0.002l-0.139,0.002l-0.139,0.003l-0.139,0.004l-0.139,0.005l-0.139,0.006l-0.138,0.006l-0.138,0.008l-0.138,0.008l-0.137,0.009l-0.138,0.01l-0.137,0.011l-0.137,0.012l-0.136,0.012l-0.136,0.014l-0.136,0.014l-0.136,0.015l-0.135,0.016l-0.135,0.017l-0.135,0.017l-0.135,0.019l-0.135,0.019l-0.134,0.02l-0.133,0.021l-0.134,0.022l-0.133,0.022l-0.133,0.024l-0.133,0.024l-0.132,0.025l-0.132,0.026l-0.132,0.026l-0.132,0.028l-0.131,0.028l-0.13,0.029l-0.131,0.029l-0.131,0.031l-0.129,0.031l-0.13,0.032l-0.13,0.033l-0.129,0.034l-0.128,0.034l-0.129,0.036l-0.128,0.036l-0.128,0.036l-0.127,0.038l-0.128,0.038l-0.126,0.039l-0.127,0.04l-0.126,0.04l-0.126,0.042l-0.125,0.042l-0.125,0.043l-0.125,0.043l-0.124,0.044l-0.125,0.046l-0.123,0.045l-0.123,0.047l-0.124,0.047l-0.122,0.048l-0.123,0.049l-0.122,0.049l-0.121,0.05l-0.121,0.051l-0.121,0.052l-0.12,0.052l-0.121,0.053l-0.12,0.054l-0.119,0.054l-0.118,0.055l-0.119,0.056l-0.118,0.057l-0.118,0.057l-0.118,0.058l-0.117,0.059l-0.116,0.059l-0.116,0.06l-0.116,0.06l-0.115,0.062l-0.115,0.062l-0.114,0.062l-0.115,0.064l-0.114,0.064l-0.113,0.065l-0.112,0.065l-0.113,0.066l-0.112,0.067l-0.111,0.067l-0.112,0.068l-0.11,0.069l-0.111,0.069l-0.109,0.07l-0.11,0.07l-0.109,0.072l-0.108,0.072l-0.108,0.072l-0.108,0.074l-0.107,0.073l-0.106,0.075l-0.107,0.075l-0.106,0.075l-0.104,0.077l-0.105,0.076l-0.105,0.078l-0.104,0.078l-0.103,0.079l-0.103,0.079l-0.102,0.08l-0.102,0.081l-0.101,0.081l-0.101,0.082l-0.101,0.082l-0.099,0.083l-0.1,0.083l-0.098,0.084l-0.099,0.085l-0.098,0.085l-0.097,0.086l-0.097,0.087l-0.096,0.087l-0.096,0.087l-0.095,0.089l-0.095,0.088l-0.094,0.089l-0.094,0.09l-0.092,0.09l-0.093,0.092l-0.092,0.091l-0.091,0.092l-0.092,0.093l-0.09,0.092l-0.09,0.094l-0.089,0.094l-0.089,0.095l-0.088,0.096l-0.087,0.095l-0.087,0.096l-0.086,0.097l-0.086,0.097l-0.086,0.098l-0.085,0.099l-0.083,0.098l-0.084,0.099l-0.083,0.101l-0.082,0.1l-0.082,0.101l-0.081,0.101l-0.081,0.102l-0.08,0.102l-0.079,0.103l-0.079,0.104l-0.078,0.103l-0.077,0.104l-0.077,0.105l-0.077,0.106l-0.075,0.106l-0.075,0.105l-0.075,0.107l-0.074,0.107l-0.073,0.108l-0.072,0.108l-0.072,0.108l-0.071,0.109l-0.071,0.11l-0.07,0.109l-0.069,0.111l-0.069,0.11l-0.068,0.111l-0.067,0.112l-0.067,0.112l-0.066,0.112l-0.065,0.113l-0.065,0.114l-0.064,0.113l-0.064,0.114l-0.062,0.115l-0.062,0.115l-0.062,0.115l-0.06,0.116l-0.06,0.116l-0.06,0.117l-0.058,0.117l-0.058,0.117l-0.057,0.118l-0.057,0.118l-0.056,0.119l-0.055,0.118l-0.054,0.12l-0.054,0.119l-0.053,0.121l-0.052,0.12l-0.052,0.12l-0.051,0.122l-0.05,0.122l-0.049,0.121l-0.049,0.122l-0.048,0.124l-0.047,0.123l-0.047,0.122l-0.045,0.124l-0.045,0.125l-0.045,0.124l-0.043,0.125l-0.043,0.125l-0.042,0.126l-0.041,0.125l-0.041,0.126l-0.04,0.127l-0.039,0.127l-0.038,0.127l-0.038,0.127l-0.036,0.128l-0.036,0.128l-0.036,0.128l-0.034,0.129l-0.034,0.129l-0.033,0.13l-0.032,0.13l-0.031,0.13l-0.031,0.13l-0.029,0.131l-0.029,0.13l-0.028,0.131l-0.028,0.132l-0.026,0.132l-0.026,0.132l-0.025,0.132l-0.024,0.133l-0.024,0.133l-0.022,0.133l-0.022,0.134l-0.021,0.134l-0.02,0.134l-0.019,0.133l-0.019,0.136l-0.017,0.135l-0.017,0.135l-0.016,0.135l-0.015,0.136l-0.014,0.136l-0.014,0.136l-0.012,0.137l-0.012,0.136l-0.011,0.138l-0.01,0.137l-0.009,0.137l-0.008,0.138l-0.008,0.138l-0.006,0.138l-0.006,0.139l-0.005,0.139l-0.004,0.138l-0.003,0.14l-0.002,0.14l-0.002,0.139l0,0.14l0,0.14l0.002,0.139l0.002,0.14l0.003,0.14l0.004,0.138l0.005,0.139l0.006,0.139l0.006,0.138l0.008,0.138l0.008,0.138l0.009,0.137l0.01,0.137l0.011,0.138l0.012,0.136l0.012,0.137l0.014,0.136l0.014,0.136l0.015,0.136l0.016,0.135l0.017,0.135l0.017,0.135l0.019,0.135l0.019,0.134l0.02,0.134l0.021,0.134l0.022,0.134l0.022,0.133l0.024,0.133l0.024,0.133l0.025,0.132l0.026,0.132l0.026,0.132l0.028,0.132l0.028,0.131l0.029,0.13l0.029,0.131l0.031,0.13l0.031,0.13l0.032,0.13l0.033,0.13l0.034,0.129l0.034,0.129l0.036,0.128l0.036,0.128l0.036,0.128l0.038,0.127l0.038,0.127l0.039,0.127l0.04,0.127l0.041,0.126l0.041,0.125l0.042,0.126l0.043,0.125l0.043,0.125l0.045,0.124l0.045,0.125l0.045,0.124l0.047,0.122l0.047,0.123l0.048,0.124l0.049,0.122l0.049,0.121l0.05,0.122l0.051,0.122l0.052,0.12l0.052,0.12l0.053,0.121l0.054,0.119l0.054,0.12l0.055,0.118l0.056,0.119l0.057,0.118l0.057,0.118l0.058,0.117l0.058,0.117l0.06,0.117l0.06,0.116l0.06,0.116l0.062,0.115l0.062,0.115l0.062,0.115l0.064,0.114l0.064,0.113l0.065,0.114l0.065,0.113l0.066,0.112l0.067,0.112l0.067,0.112l0.068,0.111l0.069,0.11l0.069,0.111l0.07,0.109l0.071,0.11l0.071,0.109l0.072,0.108l0.073,0.109l0.072,0.107l0.074,0.107l0.075,0.107l0.075,0.105l0.075,0.106l0.077,0.106l0.077,0.105l0.077,0.104l0.078,0.103l0.079,0.104l0.079,0.103l0.08,0.102l0.081,0.102l0.081,0.101l0.082,0.101l0.082,0.101l0.083,0.1l0.083,0.099l0.084,0.098l0.085,0.099l0.086,0.098l0.086,0.097l0.086,0.097l0.087,0.096l0.087,0.095l0.088,0.096l0.089,0.095l0.089,0.094l0.09,0.094l0.09,0.092l0.092,0.093l0.091,0.092l0.092,0.092l0.093,0.091l0.092,0.089l0.094,0.091l0.094,0.089l0.095,0.088l0.095,0.089l0.096,0.087l0.096,0.087l0.097,0.087l0.097,0.086l0.098,0.085l0.099,0.085l0.098,0.083l0.1,0.084l0.099,0.083l0.101,0.082l0.101,0.082l0.101,0.081l0.102,0.081l0.102,0.08l0.103,0.079l0.103,0.079l0.104,0.078l0.105,0.078l0.105,0.076l0.104,0.077l0.106,0.075l0.107,0.075l0.106,0.075l0.107,0.073l0.108,0.074l0.108,0.072l0.108,0.072l0.109,0.072l0.11,0.07l0.109,0.07l0.111,0.069l0.11,0.069l0.112,0.068l0.111,0.067l0.112,0.067l0.113,0.066l0.112,0.065l0.114,0.065l0.113,0.064l0.114,0.064l0.115,0.062l0.115,0.062l0.115,0.062l0.116,0.06l0.116,0.06l0.116,0.059l0.117,0.059l0.118,0.058l0.118,0.057l0.118,0.057l0.118,0.056l0.119,0.055l0.119,0.054l0.12,0.054l0.121,0.053l0.12,0.052l0.121,0.052l0.121,0.051l0.121,0.05l0.122,0.049l0.123,0.049l0.122,0.048l0.124,0.047l0.123,0.047l0.123,0.045l0.125,0.046l0.124,0.044l0.125,0.043l0.125,0.043l0.125,0.042l0.126,0.042l0.126,0.04l0.127,0.04l0.127,0.039l0.127,0.038l0.127,0.038l0.128,0.036l0.128,0.036l0.129,0.036l0.129,0.034l0.128,0.034l0.13,0.033l0.13,0.032l0.129,0.031l0.131,0.031l0.131,0.029l0.13,0.029l0.131,0.028l0.132,0.028l0.132,0.026l0.132,0.026l0.132,0.025l0.133,0.024l0.133,0.024l0.133,0.022l0.134,0.022l0.133,0.021l0.134,0.02l0.135,0.019l0.135,0.019l0.135,0.017l0.135,0.017l0.135,0.016l0.136,0.015l0.136,0.014l0.136,0.014l0.136,0.012l0.137,0.012l0.137,0.011l0.138,0.01l0.137,0.009l0.138,0.008l0.138,0.008l0.138,0.006l0.139,0.006l0.139,0.005l0.139,0.004l0.139,0.003l0.139,0.002l0.14,0.002l0.14,0l0.14,0l0.14,-0.002l0.139,-0.002l0.139,-0.003l0.139,-0.004l0.139,-0.005l0.139,-0.006l0.138,-0.006l0.138,-0.008l0.138,-0.008l0.137,-0.009l0.138,-0.01l0.137,-0.011l0.137,-0.012l0.136,-0.012l0.136,-0.014l0.136,-0.014l0.136,-0.015l0.136,-0.016l0.134,-0.017l0.135,-0.017l0.135,-0.019l0.134,-0.019l0.135,-0.02l0.134,-0.021l0.133,-0.022l0.133,-0.022l0.133,-0.024l0.133,-0.024l0.132,-0.025l0.132,-0.026l0.132,-0.026l0.132,-0.028l0.131,-0.028l0.13,-0.029l0.131,-0.029l0.131,-0.031l0.13,-0.031l0.129,-0.032l0.13,-0.033l0.129,-0.034l0.128,-0.034l0.129,-0.036l0.128,-0.036l0.128,-0.036l0.127,-0.038l0.127,-0.038l0.127,-0.039l0.127,-0.04l0.126,-0.04l0.125,-0.042l0.126,-0.042l0.125,-0.043l0.125,-0.043l0.124,-0.044l0.125,-0.046l0.123,-0.045l0.123,-0.047l0.124,-0.047l0.122,-0.048l0.123,-0.049l0.122,-0.049l0.121,-0.05l0.121,-0.051l0.121,-0.052l0.12,-0.052l0.121,-0.053l0.12,-0.054l0.119,-0.054l0.119,-0.055l0.118,-0.056l0.118,-0.057l0.118,-0.057l0.118,-0.058l0.116,-0.058l0.117,-0.06l0.116,-0.06l0.116,-0.06l0.115,-0.062l0.115,-0.062l0.115,-0.063l0.114,-0.063l0.113,-0.064l0.114,-0.065l0.113,-0.065l0.112,-0.066l0.112,-0.067l0.112,-0.067l0.111,-0.068l0.11,-0.069l0.111,-0.069l0.109,-0.07l0.11,-0.071l0.109,-0.071l0.108,-0.072l0.108,-0.072l0.108,-0.073l0.107,-0.074l0.106,-0.075l0.107,-0.075l0.106,-0.075l0.104,-0.077l0.105,-0.077l0.105,-0.077l0.103,-0.078l0.104,-0.079l0.103,-0.08l0.102,-0.079l0.102,-0.081l0.101,-0.081l0.101,-0.082l0.101,-0.082l0.099,-0.083l0.099,-0.083l0.1,-0.085l0.098,-0.084l0.098,-0.085l0.097,-0.086l0.097,-0.087l0.096,-0.087l0.096,-0.087l0.095,-0.089l0.095,-0.088l0.094,-0.089l0.093,-0.09l0.093,-0.09l0.093,-0.092l0.092,-0.091l0.091,-0.092l0.092,-0.093l0.09,-0.092l0.09,-0.094l0.089,-0.094l0.088,-0.095l0.089,-0.095l0.087,-0.096l0.087,-0.097l0.086,-0.096l0.086,-0.097l0.086,-0.098l0.084,-0.099l0.085,-0.098l0.083,-0.1l0.083,-0.099l0.082,-0.101l0.082,-0.101l0.081,-0.101l0.081,-0.102l0.08,-0.102l0.079,-0.103l0.079,-0.103l0.078,-0.104l0.078,-0.105l0.076,-0.104l0.077,-0.106l0.076,-0.106l0.074,-0.105l0.075,-0.107l0.074,-0.107l0.073,-0.108l0.072,-0.107l0.072,-0.109l0.071,-0.109l0.071,-0.11l0.07,-0.109l0.069,-0.11l0.069,-0.111l0.068,-0.112l0.067,-0.111l0.067,-0.112l0.066,-0.112l0.066,-0.114l0.064,-0.113l0.064,-0.113l0.064,-0.114l0.062,-0.115l0.062,-0.115l0.062,-0.115l0.06,-0.116l0.06,-0.116l0.06,-0.117l0.058,-0.117l0.058,-0.117l0.057,-0.118l0.057,-0.118l0.056,-0.119l0.055,-0.118l0.054,-0.12l0.054,-0.119l0.053,-0.12l0.052,-0.121l0.052,-0.121l0.051,-0.121l0.05,-0.122l0.049,-0.121l0.049,-0.122l0.048,-0.124l0.047,-0.122l0.047,-0.123l0.045,-0.125l0.045,-0.124l0.045,-0.124l0.043,-0.125l0.043,-0.125l0.042,-0.125l0.041,-0.126l0.041,-0.126l0.04,-0.126l0.039,-0.128l0.038,-0.127l0.038,-0.127l0.036,-0.128l0.036,-0.128l0.036,-0.128l0.034,-0.129l0.034,-0.129l0.033,-0.13l0.032,-0.13l0.031,-0.13l0.031,-0.13l0.029,-0.13l0.029,-0.131l0.029,-0.132l0.027,-0.131l0.026,-0.132l0.026,-0.132l0.025,-0.132l0.024,-0.133l0.024,-0.133l0.022,-0.133l0.022,-0.134l0.021,-0.134l0.02,-0.134l0.019,-0.134l0.019,-0.135l0.017,-0.134l0.017,-0.135l0.016,-0.136l0.015,-0.136l0.014,-0.136l0.014,-0.136l0.012,-0.137l0.012,-0.137l0.011,-0.136l0.01,-0.138l0.009,-0.137l0.008,-0.138l0.008,-0.138l0.006,-0.138l0.006,-0.139l0.005,-0.138l0.004,-0.139l0.003,-0.14l0.002,-0.139l0.002,-0.14l0,-0.14l0,-0.14l-0.002,-0.14l-0.002,-0.139l-0.003,-0.14l-0.004,-0.139l-0.005,-0.138l-0.006,-0.139l-0.006,-0.138l-0.008,-0.138l-0.008,-0.138l-0.009,-0.137l-0.01,-0.138l-0.011,-0.136l-0.012,-0.137l-0.012,-0.137l-0.014,-0.136l-0.014,-0.136l-0.015,-0.136l-0.016,-0.136l-0.017,-0.135l-0.017,-0.134l-0.019,-0.136l-0.019,-0.133l-0.02,-0.134l-0.021,-0.134l-0.022,-0.134l-0.022,-0.133l-0.024,-0.133l-0.024,-0.133l-0.025,-0.132l-0.026,-0.132l-0.026,-0.132l-0.027,-0.131l-0.029,-0.132l-0.029,-0.131l-0.029,-0.13l-0.031,-0.13l-0.031,-0.13l-0.032,-0.13l-0.033,-0.13l-0.034,-0.129l-0.034,-0.129l-0.036,-0.128l-0.036,-0.128l-0.036,-0.128l-0.038,-0.127l-0.038,-0.127l-0.039,-0.128l-0.04,-0.126l-0.041,-0.126l-0.041,-0.126l-0.042,-0.125l-0.043,-0.125l-0.043,-0.125l-0.045,-0.124l-0.045,-0.124l-0.045,-0.125l-0.047,-0.123l-0.047,-0.122l-0.048,-0.124l-0.049,-0.122l-0.049,-0.121l-0.05,-0.122l-0.051,-0.121l-0.052,-0.121l-0.052,-0.121l-0.053,-0.12l-0.054,-0.119l-0.054,-0.12l-0.055,-0.118l-0.056,-0.119l-0.057,-0.118l-0.057,-0.118l-0.058,-0.117l-0.058,-0.117l-0.06,-0.117l-0.06,-0.116l-0.06,-0.116l-0.062,-0.115l-0.062,-0.115l-0.062,-0.115l-0.064,-0.114l-0.064,-0.113l-0.064,-0.113l-0.066,-0.114l-0.066,-0.112l-0.067,-0.112l-0.067,-0.111l-0.068,-0.112l-0.069,-0.111l-0.069,-0.11l-0.07,-0.109l-0.071,-0.11l-0.071,-0.109l-0.072,-0.109l-0.072,-0.107l-0.073,-0.108l-0.074,-0.107l-0.075,-0.107l-0.074,-0.105l-0.076,-0.106l-0.077,-0.106l-0.076,-0.104l-0.078,-0.105l-0.078,-0.104l-0.079,-0.103l-0.079,-0.103l-0.08,-0.102l-0.081,-0.102l-0.081,-0.101l-0.082,-0.101l-0.082,-0.1l-0.083,-0.1l-0.084,-0.1l-0.084,-0.098l-0.084,-0.099l-0.086,-0.098l-0.086,-0.097l-0.086,-0.096l-0.087,-0.097l-0.087,-0.096l-0.089,-0.095l-0.088,-0.095l-0.089,-0.094l-0.09,-0.094l-0.09,-0.092l-0.092,-0.093l-0.091,-0.092l-0.091,-0.091l-0.094,-0.092l-0.093,-0.09l-0.093,-0.09l-0.094,-0.089l-0.095,-0.088l-0.095,-0.089l-0.096,-0.087l-0.096,-0.087l-0.097,-0.087l-0.097,-0.086l-0.098,-0.084l-0.098,-0.085l-0.1,-0.085l-0.099,-0.083l-0.099,-0.083l-0.101,-0.082l-0.101,-0.082l-0.101,-0.081l-0.102,-0.081l-0.102,-0.079l-0.103,-0.08l-0.104,-0.079l-0.103,-0.078l-0.105,-0.077l-0.105,-0.077l-0.104,-0.077l-0.106,-0.075l-0.107,-0.075l-0.106,-0.075l-0.107,-0.074l-0.108,-0.073l-0.108,-0.072l-0.108,-0.072l-0.109,-0.071l-0.11,-0.071l-0.109,-0.07l-0.111,-0.069l-0.11,-0.069l-0.111,-0.068l-0.112,-0.067l-0.112,-0.067l-0.112,-0.066l-0.113,-0.065l-0.114,-0.065l-0.113,-0.064l-0.114,-0.064l-0.115,-0.062l-0.115,-0.062l-0.115,-0.062l-0.116,-0.06l-0.116,-0.06l-0.117,-0.06l-0.116,-0.058l-0.118,-0.058l-0.118,-0.057l-0.118,-0.057l-0.119,-0.056l-0.118,-0.055l-0.119,-0.054l-0.12,-0.054l-0.121,-0.053l-0.12,-0.052l-0.121,-0.052l-0.121,-0.051l-0.121,-0.05l-0.122,-0.049l-0.123,-0.049l-0.122,-0.048l-0.124,-0.047l-0.123,-0.047l-0.123,-0.045l-0.125,-0.046l-0.124,-0.044l-0.125,-0.043l-0.125,-0.043l-0.126,-0.042l-0.125,-0.042l-0.126,-0.04l-0.127,-0.04l-0.126,-0.039l-0.128,-0.038l-0.127,-0.038l-0.128,-0.036l-0.128,-0.036l-0.129,-0.036l-0.128,-0.034l-0.129,-0.034l-0.13,-0.033l-0.129,-0.032l-0.13,-0.031l-0.131,-0.031l-0.131,-0.029l-0.13,-0.029l-0.131,-0.028l-0.132,-0.028l-0.132,-0.026l-0.132,-0.026l-0.132,-0.025l-0.133,-0.024l-0.133,-0.024l-0.133,-0.022l-0.133,-0.022l-0.134,-0.021l-0.135,-0.02l-0.134,-0.019l-0.135,-0.019l-0.135,-0.017l-0.134,-0.017l-0.136,-0.016l-0.136,-0.015l-0.136,-0.014l-0.136,-0.014l-0.136,-0.012l-0.137,-0.012l-0.137,-0.011l-0.138,-0.01l-0.137,-0.009l-0.138,-0.008l-0.138,-0.008l-0.138,-0.006l-0.139,-0.006l-0.139,-0.005l-0.139,-0.004l-0.139,-0.003l-0.139,-0.002l-0.14,-0.002l-0.14,0l-0.14,0Z"/><path d="M32.6,43.4l-23.921,0c-5.077,-4.508 -8.279,-11.083 -8.279,-18.4c0,-1.926 0.222,-3.801 0.641,-5.6l31.559,0l0,24Z"/><path d="M7.6,15.9l0,2l26.5,0l0,19.5l2,0l0,-21.5l-28.5,0Z"/><path d="M10.6,12.4l0,2l27,0l0,17l2,0l0,-19l-29,0Z"/></svg>