<?xml version="1.0" encoding="UTF-8" standalone="no"?><!DOCTYPE svg PUBLIC "-//W3C//DTD SVG 1.1//EN" "http://www.w3.org/Graphics/SVG/1.1/DTD/svg11.dtd"><svg width="100%" height="100%" viewBox="0 0 50 50" version="1.1" xmlns="http://www.w3.org/2000/svg" xmlns:xlink="http://www.w3.org/1999/xlink" xml:space="preserve" style="fill-rule:evenodd;clip-rule:evenodd;stroke-linejoin:round;stroke-miterlimit:1.41421;"><path id="path17470" d="M25,0c-13.789,0 -25,11.211 -25,25c0,13.789 11.211,25 25,25c13.789,0 25,-11.211 25,-25c0,-13.789 -11.211,-25 -25,-25Zm0,3.048c12.142,0 21.952,9.81 21.952,21.952c0,3.447 -0.791,6.704 -2.201,9.603l-0.629,-0.629l-0.878,-0.877l-0.875,-0.877l-0.877,-0.875l-0.877,-0.877c-1.301,-1.087 -1.904,-1.931 -2.219,-3.487l-0.464,-1.733l-0.465,-1.732l-0.464,-1.733l-0.463,-1.733l-0.464,-1.732l-0.464,-1.733c-0.198,-1.327 -0.343,-1.89 -1.598,-2.036l-1.133,-0.304l-1.133,-0.303l-1.134,-0.304l-1.131,-0.303l-1.133,-0.304l-1.133,-0.304c-0.157,-0.029 -0.285,-0.031 -0.391,-0.014c-0.74,0.12 -0.34,1.217 -0.34,1.217l0.403,1.506l0.405,1.506l0.403,1.507l0.365,1.365l2.981,1.713l0,6.946l-6.043,3.471l-6.043,-3.471l0,-0.441l0,-6.503l0.554,-0.318l-0.141,-0.524l-0.403,-1.506l-0.403,-1.504l-0.403,-1.505c0,0 -0.332,-1.596 -1.23,-0.676l-0.828,0.827l-0.828,0.826l-0.827,0.827l-0.826,0.828l-0.827,0.828l-0.828,0.825c-1.128,0.696 -0.797,1.458 -0.363,2.56l1.393,5.198l0.463,1.733l0.464,1.732l0.464,1.733c0.157,1.642 0.674,2.015 2.197,2.197l3.465,0.928l1.733,0.465l1.733,0.464l1.732,0.465c1.653,0.442 3.291,0.584 4.34,1.804l0.876,0.875l0.875,0.875l0.877,0.875l0.875,0.875l0.875,0.876l0.637,0.637c-2.899,1.41 -6.156,2.203 -9.603,2.203c-12.142,0 -21.952,-9.81 -21.952,-21.952c0,-12.142 9.81,-21.952 21.952,-21.952l0,0Zm0,16.762l-4.517,2.596l0,5.188l4.517,2.594l4.517,-2.594l0,-5.188l-0.897,-0.516l-3.62,-2.08l0,0Z" style="fill-rule:nonzero;"/></svg>