<?xml version="1.0" encoding="UTF-8" standalone="no"?><!DOCTYPE svg PUBLIC "-//W3C//DTD SVG 1.1//EN" "http://www.w3.org/Graphics/SVG/1.1/DTD/svg11.dtd"><svg width="100%" height="100%" viewBox="0 0 48 48" version="1.1" xmlns="http://www.w3.org/2000/svg" xmlns:xlink="http://www.w3.org/1999/xlink" xml:space="preserve" style="fill-rule:evenodd;clip-rule:evenodd;stroke-linejoin:round;stroke-miterlimit:1.41421;"><path id="path5577" d="M32.786,7.251c-0.035,0.017 -0.07,0.033 -0.103,0.051l-22.126,3.396c-1.281,0.191 -1.898,2.073 -0.978,2.985c2.769,2.741 3.341,5.31 2.985,8.593c-0.356,3.284 -1.847,7.138 -3.396,11.578c-0.335,0.96 -0.577,2.248 -0.102,3.705c0.471,1.457 1.991,2.953 4.116,3.19l23.361,0c0.37,0 0.736,-0.135 1.03,-0.36c1.12,-0.84 1.785,-2.223 1.595,-3.447c-0.19,-1.225 -0.948,-2.088 -1.75,-2.676c-0.213,-0.155 -0.461,-0.262 -0.72,-0.309l-2.11,-0.309c0.026,-0.442 -0.046,-0.718 0.155,-1.389c0.908,-3.043 2.692,-6.986 3.344,-11.269c0.653,-4.283 0.035,-9.106 -3.859,-13.173c-0.326,-0.355 -0.804,-0.565 -1.286,-0.566l-0.155,0l-0.001,0Zm-0.258,2.676c3.074,3.385 3.597,6.953 3.036,10.652c-0.577,3.804 -2.304,7.599 -3.293,10.908c-0.306,1.024 -0.398,1.913 -0.36,2.676l-16.621,-2.624c-0.034,-0.002 -0.068,-0.002 -0.102,0c-0.051,-0.005 -0.103,-0.005 -0.155,0c-0.381,0.078 -0.657,0.417 -0.657,0.807c0,0.131 0.031,0.26 0.091,0.376c0.967,1.823 0.988,3.211 0.669,4.066c-0.209,0.559 -0.529,0.958 -0.977,1.183c-0.225,0.112 -0.498,0.173 -0.772,0.206c0.274,-0.033 0.547,-0.094 0.772,-0.206l-0.772,0.155c-0.545,-0.077 -0.905,-0.217 -1.184,-0.412c-0.018,-0.016 -0.033,-0.038 -0.051,-0.051c0,0 -0.043,0 -0.051,0c-0.02,-0.016 -0.035,-0.036 -0.051,-0.051c-0.251,-0.222 -0.413,-0.511 -0.515,-0.823c-0.226,-0.696 -0.1,-1.622 0.051,-2.058c1.53,-4.384 3.139,-8.394 3.551,-12.196c0.365,-3.36 -0.572,-6.573 -2.984,-9.519l20.376,-3.088l-0.001,-0.001Zm0.051,3.808l-14.871,1.955l0.206,1.647l14.871,-2.007l-0.206,-1.595Zm0.412,4.065l-14.871,2.007l0.206,1.646l14.871,-2.006l-0.206,-1.647Zm-0.566,4.117l-14.82,1.955l0.206,1.646l14.871,-2.006l-0.257,-1.595l0,0Zm-1.081,4.425l-14.871,2.007l0.206,1.646l14.871,-2.007l-0.206,-1.646Zm-14.973,7.049l19.656,3.088c0.327,0.28 0.579,0.628 0.618,0.875c0.037,0.235 -0.155,0.492 -0.515,0.823l-20.068,0c0.205,-0.279 0.489,-0.48 0.617,-0.823c0.401,-1.073 0.202,-2.476 -0.308,-3.963Z" style="fill-rule:nonzero;"/></svg>