<?xml version="1.0" encoding="UTF-8" standalone="no"?><!DOCTYPE svg PUBLIC "-//W3C//DTD SVG 1.1//EN" "http://www.w3.org/Graphics/SVG/1.1/DTD/svg11.dtd"><svg width="100%" height="100%" viewBox="0 0 48 48" version="1.1" xmlns="http://www.w3.org/2000/svg" xmlns:xlink="http://www.w3.org/1999/xlink" xml:space="preserve" style="fill-rule:evenodd;clip-rule:evenodd;stroke-linejoin:round;stroke-miterlimit:1.41421;"><path id="path6149" d="M21.482,8.694c-7.243,0 -13.125,5.913 -13.125,13.156c0,7.243 5.882,13.156 13.125,13.156c2.974,0 5.725,-1.007 7.937,-2.687l6.531,6.156c0.843,0.794 2.332,0.749 3.125,-0.093c0.794,-0.843 0.749,-2.332 -0.093,-3.125l-6.531,-6.125c1.401,-2.093 2.218,-4.59 2.218,-7.282c0,-7.243 -5.944,-13.156 -13.187,-13.156Zm0,4.406c4.865,0 8.781,3.885 8.781,8.75c0,4.865 -3.916,8.75 -8.781,8.75c-4.865,0 -8.719,-3.885 -8.719,-8.75c0,-4.865 3.854,-8.75 8.719,-8.75Z" style="fill-rule:nonzero;"/></svg>