<?xml version="1.0" encoding="UTF-8" standalone="no"?><!DOCTYPE svg PUBLIC "-//W3C//DTD SVG 1.1//EN" "http://www.w3.org/Graphics/SVG/1.1/DTD/svg11.dtd"><svg width="100%" height="100%" viewBox="0 0 50 50" version="1.1" xmlns="http://www.w3.org/2000/svg" xmlns:xlink="http://www.w3.org/1999/xlink" xml:space="preserve" style="fill-rule:evenodd;clip-rule:evenodd;stroke-linejoin:round;stroke-miterlimit:1.41421;"><path d="M24.518,0.005c0.16,-0.003 0.321,-0.004 0.482,-0.004c0.054,0 0.107,0 0.16,0l0.003,0c0.694,0.005 1.381,0.038 2.062,0.099c0.528,0.046 1.055,0.109 1.58,0.189c2.234,0.342 4.42,0.99 6.479,1.922c2.472,1.118 4.757,2.642 6.742,4.491c2.055,1.913 3.786,4.17 5.097,6.653c1.121,2.123 1.932,4.408 2.399,6.763c0.536,2.701 0.621,5.491 0.256,8.221c-0.34,2.547 -1.078,5.038 -2.18,7.359c-1.27,2.675 -3.019,5.118 -5.137,7.187c-2.23,2.177 -4.864,3.934 -7.734,5.149c-3.02,1.279 -6.286,1.945 -9.565,1.965c-3.286,0.021 -6.566,-0.604 -9.608,-1.848c-2.886,-1.18 -5.542,-2.906 -7.799,-5.058c-2.142,-2.042 -3.92,-4.463 -5.221,-7.122c-1.129,-2.304 -1.896,-4.782 -2.269,-7.321c-0.391,-2.674 -0.349,-5.412 0.126,-8.072c0.415,-2.319 1.161,-4.575 2.21,-6.684c1.251,-2.516 2.928,-4.816 4.939,-6.778c2.011,-1.965 4.352,-3.588 6.9,-4.778c2.045,-0.956 4.219,-1.63 6.445,-1.999c0.294,-0.049 0.589,-0.092 0.884,-0.13c0.9,-0.117 1.816,-0.186 2.745,-0.203l0.002,0l0.002,-0.001Zm5.298,3.575l0,30.033l-4.816,-4.755l-10.208,10.079l0,-33.371c-1.836,0.968 -3.534,2.197 -5.028,3.639c-1.616,1.56 -2.993,3.366 -4.066,5.339c-1.026,1.888 -1.772,3.927 -2.202,6.032c-0.495,2.416 -0.579,4.915 -0.252,7.359c0.292,2.19 0.92,4.333 1.855,6.335c1.102,2.357 2.626,4.513 4.476,6.341c1.947,1.923 4.25,3.481 6.763,4.563c2.642,1.137 5.502,1.739 8.378,1.775c2.886,0.037 5.773,-0.493 8.452,-1.57c2.501,-1.005 4.808,-2.475 6.781,-4.311c1.936,-1.802 3.543,-3.951 4.721,-6.319c0.981,-1.972 1.66,-4.093 2.006,-6.268c0.381,-2.391 0.367,-4.846 -0.045,-7.232c-0.351,-2.037 -0.993,-4.022 -1.902,-5.878c-1.086,-2.217 -2.549,-4.246 -4.304,-5.982c-1.54,-1.521 -3.303,-2.814 -5.217,-3.823l0,33.371l-3.36,-3.317l0,-31.479c-0.668,-0.22 -1.346,-0.407 -2.032,-0.561Z"/><path d="M60,122l-50,0l0,-50l50,0l0,50Zm-49,-49l0,48l48,0l0,-48l-48,0Z" style="fill:#f00;"/></svg>