<?xml version="1.0" encoding="UTF-8" standalone="no"?><!DOCTYPE svg PUBLIC "-//W3C//DTD SVG 1.1//EN" "http://www.w3.org/Graphics/SVG/1.1/DTD/svg11.dtd"><svg width="100%" height="100%" viewBox="0 0 50 50" version="1.1" xmlns="http://www.w3.org/2000/svg" xmlns:xlink="http://www.w3.org/1999/xlink" xml:space="preserve" style="fill-rule:evenodd;clip-rule:evenodd;stroke-linejoin:round;stroke-miterlimit:1.41421;"><path id="path17468" d="M24.999,0.002c-13.789,0 -24.999,11.21 -24.999,24.999c0,13.789 11.21,24.999 24.999,24.999c13.789,0 25.001,-11.21 25.001,-24.999c0,-13.789 -11.212,-24.999 -25.001,-24.999Zm0,3.048c7.202,0 13.564,3.466 17.565,8.808l-28.593,0c-1.712,0 -3.112,1.402 -3.112,3.113l0,19.937c0,1.711 1.4,3.113 3.112,3.113l28.682,0c-3.995,5.411 -10.398,8.931 -17.654,8.931c-12.141,0 -21.951,-9.81 -21.951,-21.951c0,-12.141 9.81,-21.951 21.951,-21.951l0,0Zm-7.432,15.087l5.358,4.048l-5.358,4.048l-0.919,-1.216l3.749,-2.832l-3.749,-2.832l0.919,-1.216Zm5.969,7.479l6.662,0l0,1.524l-6.662,0l0,-1.524Z" style="fill-rule:nonzero;"/><path d="M0,122l-50,0l0,-50l50,0l0,50Zm-49,-49l0,48l48,0l0,-48l-48,0Z" style="fill:#f00;"/></svg>